<?xml version="1.0" encoding="UTF-8"?>
<svg xmlns="http://www.w3.org/2000/svg" width="1070" height="267" viewBox="0 0 1070 267" role="img" aria-labelledby="title desc">
  <title id="title">aiboux logo vector monochrome</title>
  <desc id="desc">Smoothed monochrome vector trace of the aiboux wordmark extracted from the provided image.</desc>
  <path d="M251.00,58.02 L241.00,56.32 L234.00,52.17 L228.46,45.00 L226.03,35.00 L227.73,26.00 L233.00,18.20 L241.00,12.89 L251.00,10.91 L260.00,12.59 L268.07,18.00 L273.00,25.29 L275.13,36.00 L273.23,44.00 L268.00,51.34 L260.00,56.27 Z M416.00,252.09 L395.00,252.55 L379.00,249.87 L362.00,242.01 L348.00,231.65 L346.78,233.00 L346.62,248.00 L345.00,249.62 L309.00,249.94 L306.48,249.00 L306.11,23.00 L306.27,18.00 L308.00,16.14 L343.00,15.79 L346.80,17.00 L347.16,95.00 L348.00,97.53 L366.00,85.83 L382.00,79.76 L395.00,77.71 L405.00,77.50 L424.00,79.68 L441.00,85.80 L459.00,97.35 L469.26,108.00 L480.41,126.00 L486.25,143.00 L488.36,157.00 L488.64,168.00 L486.20,188.00 L478.06,209.00 L467.17,225.00 L451.76,238.00 L435.00,247.13 Z M105.00,253.07 L92.00,253.13 L79.00,251.42 L59.00,244.42 L50.00,239.27 L38.01,230.00 L23.70,213.00 L14.75,194.00 L10.49,171.00 L11.73,149.00 L14.68,137.00 L20.64,123.00 L31.65,107.00 L43.46,96.00 L60.03,86.00 L77.00,79.89 L100.00,77.49 L120.00,79.68 L136.96,86.00 L153.00,96.88 L154.00,95.64 L154.22,83.00 L155.32,81.00 L193.00,80.93 L194.26,83.00 L194.38,88.00 L193.87,249.00 L190.00,250.01 L156.00,249.91 L154.33,248.00 L154.19,234.00 L153.00,232.36 L143.00,240.14 L130.00,247.38 L118.00,251.42 Z M608.00,253.07 L589.00,253.16 L571.00,250.44 L557.00,245.61 L542.00,237.46 L530.08,228.00 L519.83,216.00 L512.61,204.00 L506.70,187.00 L504.57,174.00 L504.70,155.00 L509.56,134.00 L515.64,121.00 L526.79,106.00 L538.00,95.83 L555.00,85.76 L573.00,79.56 L594.00,77.12 L614.00,78.44 L630.00,82.52 L646.00,89.85 L661.00,101.06 L673.30,115.00 L680.62,128.00 L686.45,146.00 L688.62,165.00 L686.58,185.00 L681.24,202.00 L672.52,217.00 L659.00,231.60 L645.00,241.35 L626.00,249.51 Z M803.00,253.10 L778.00,253.02 L764.00,250.40 L755.00,247.34 L744.00,241.64 L734.00,234.20 L723.45,221.00 L715.90,202.00 L712.85,184.00 L712.64,84.00 L714.00,80.27 L750.00,79.81 L753.54,81.00 L753.95,179.00 L756.00,192.91 L760.56,203.00 L768.00,211.08 L777.72,216.00 L790.00,217.54 L802.34,216.00 L811.22,212.00 L819.00,204.12 L824.10,193.00 L826.28,177.00 L826.66,81.00 L830.00,79.63 L861.00,79.54 L866.00,79.73 L867.62,81.00 L867.84,182.00 L865.72,198.00 L862.38,210.00 L853.88,226.00 L846.74,234.00 L839.00,240.37 L823.00,248.62 Z M1025.00,251.01 L1010.00,250.92 L1007.00,249.46 L969.00,195.50 L967.00,196.89 L929.00,250.40 L883.26,250.00 L883.14,248.00 L885.76,244.00 L943.31,163.00 L885.81,83.00 L885.81,80.00 L932.00,79.86 L969.00,130.10 L1007.00,80.06 L1050.00,79.49 L1053.00,80.51 L1052.51,83.00 L994.84,162.00 L1056.41,249.00 L1054.00,250.82 Z M270.00,249.23 L234.00,249.87 L232.00,249.65 L230.67,248.00 L230.76,84.00 L231.09,82.00 L233.00,80.87 L267.00,80.86 L269.00,81.14 L270.32,83.00 Z M407.84,218.00 L417.00,215.08 L427.00,209.29 L435.00,201.84 L441.00,193.64 L445.13,184.00 L447.22,174.00 L447.61,162.00 L446.17,152.00 L443.01,142.00 L438.00,133.24 L431.00,125.45 L422.00,118.71 L414.00,114.80 L403.00,112.26 L393.00,112.00 L383.00,113.62 L373.00,117.67 L364.00,123.55 L359.13,128.00 L352.55,137.00 L347.75,148.00 L345.71,158.00 L345.28,168.00 L346.61,178.00 L349.28,187.00 L353.98,196.00 L359.65,203.00 L368.00,210.03 L378.00,215.37 L386.00,217.93 L397.00,218.84 Z M109.33,218.00 L119.00,216.18 L128.68,212.00 L138.00,205.46 L144.00,198.77 L149.37,190.00 L153.30,179.00 L154.59,169.00 L154.21,156.00 L151.27,145.00 L147.00,136.29 L141.00,128.45 L133.00,121.44 L125.00,116.70 L117.00,113.72 L107.00,112.24 L95.00,112.56 L85.00,114.91 L77.00,118.67 L69.26,124.00 L61.77,132.00 L55.72,142.00 L52.80,150.00 L51.04,163.00 L51.56,174.00 L54.59,185.00 L57.82,192.00 L63.00,199.54 L72.00,208.28 L80.00,213.19 L88.00,216.39 L99.00,218.29 Z M601.87,218.00 L611.77,216.00 L621.16,212.00 L629.87,206.00 L637.00,198.21 L642.00,189.52 L645.14,181.00 L647.00,170.03 L646.77,159.00 L645.04,150.00 L640.05,138.00 L634.00,129.32 L627.54,123.00 L619.88,118.00 L609.36,114.00 L601.00,112.52 L589.00,112.61 L579.00,114.79 L570.11,119.00 L561.78,125.00 L553.81,134.00 L549.00,142.76 L545.96,152.00 L544.62,161.00 L544.80,172.00 L547.00,181.87 L551.00,191.84 L556.53,200.00 L563.82,207.00 L571.37,212.00 L581.00,216.18 L591.00,218.04 Z" fill="#000000" fill-rule="evenodd" clip-rule="evenodd"/>
</svg>
